<?xml version="1.0" standalone="no"?>
<!DOCTYPE svg PUBLIC "-//W3C//DTD SVG 20010904//EN"
 "http://www.w3.org/TR/2001/REC-SVG-20010904/DTD/svg10.dtd">
<svg version="1.0" xmlns="http://www.w3.org/2000/svg"
 width="256.000000pt" height="256.000000pt" viewBox="0 0 256.000000 256.000000"
 preserveAspectRatio="xMidYMid meet">
<metadata>
Created by potrace 1.14, written by Peter Selinger 2001-2017
</metadata>
<g transform="translate(0.000000,256.000000) scale(0.100000,-0.100000)"
fill="#000000" stroke="none">
<path d="M22 2550 c-18 -8 -22 -17 -22 -50 0 -22 5 -40 11 -40 5 0 50 11 99
25 49 14 100 25 113 25 14 0 27 7 31 15 3 9 16 20 28 25 16 6 -19 9 -107 9
-72 0 -140 -4 -153 -9z"/>
<path d="M1080 2378 c-124 -69 -202 -133 -233 -194 -29 -58 -47 -183 -38 -275
4 -47 6 -100 4 -116 -3 -17 7 -69 21 -116 14 -47 26 -94 26 -105 0 -11 7 -22
16 -24 10 -2 22 -21 29 -48 7 -25 16 -55 20 -67 l7 -23 -268 0 c-252 -1 -544
1 -624 4 -35 1 -35 1 -38 -45 -3 -45 -2 -46 30 -53 18 -4 114 -9 213 -12 99
-3 247 -9 328 -14 82 -6 179 -10 216 -10 61 0 69 -2 79 -22 l11 -23 0 23 c1
20 6 23 29 21 15 -2 33 1 41 5 11 7 13 4 9 -12 -3 -12 -3 -21 1 -20 3 1 23
-14 43 -34 39 -38 158 -110 197 -121 17 -4 44 6 95 34 74 42 94 57 62 45 -14
-5 -17 -3 -11 11 4 10 8 23 9 29 1 6 10 23 19 38 24 35 15 45 -33 39 -35 -5
-44 -2 -72 26 l-33 32 21 17 c22 18 39 62 23 62 -25 0 -4 18 33 29 41 13 43
12 64 -15 18 -22 25 -25 37 -16 7 6 14 27 15 45 1 19 6 46 12 61 11 31 5 49
-44 111 -17 21 -36 49 -43 62 -11 21 -10 23 15 23 15 0 36 7 47 16 19 14 19
15 -3 21 -30 7 -10 23 31 23 37 0 26 17 -26 39 -40 17 -41 18 -20 29 12 7 31
13 42 15 70 11 5 40 -86 39 -66 0 -75 2 -89 22 -11 18 -12 30 -5 50 6 14 15
26 20 26 5 0 12 10 15 23 9 32 51 59 103 63 52 5 69 -5 78 -47 4 -16 15 -35
25 -42 25 -17 70 -210 74 -319 0 -10 4 -18 9 -18 5 0 6 14 2 33 -18 84 -18
107 0 127 15 17 17 32 11 122 -11 153 -40 225 -91 229 -17 1 -17 2 -2 6 21 5
21 9 -1 51 -21 39 -107 97 -182 124 -72 26 -206 34 -240 16z m204 -612 c19
-30 39 -57 45 -60 16 -10 13 -26 -4 -26 -10 0 -15 -10 -15 -30 0 -29 -13 -40
-25 -20 -3 6 -17 10 -31 10 -17 0 -27 8 -34 26 -19 50 -6 154 19 154 6 0 26
-24 45 -54z m54 -181 c26 -58 13 -73 -47 -56 -45 12 -28 80 20 81 9 0 21 -11
27 -25z m-34 -87 c3 3 6 -2 6 -12 0 -9 -4 -14 -10 -11 -5 3 -10 2 -10 -3 0 -5
-10 -8 -22 -6 -13 1 -35 3 -50 3 -17 1 -28 7 -28 15 0 17 43 25 82 15 14 -4
29 -5 32 -1z m-350 -174 c30 -12 6 -22 -31 -13 -21 4 -47 6 -58 3 -11 -3 -38
-1 -60 5 -36 8 -30 9 47 10 47 1 93 -2 102 -5z"/>
<path d="M1594 1817 c-3 -9 -2 -34 3 -54 l10 -38 7 43 c8 46 -7 83 -20 49z"/>
<path d="M1561 1411 c-33 -4 -58 -12 -64 -22 -10 -16 -5 -53 10 -76 8 -11 214
-26 548 -38 389 -14 442 -16 473 -21 l32 -5 0 80 0 79 -448 0 c-246 0 -458 2
-472 5 -14 2 -49 1 -79 -2z"/>
<path d="M1525 1244 c4 -24 0 -61 -10 -94 -9 -30 -20 -82 -25 -115 -5 -33 -16
-80 -24 -104 -9 -24 -16 -58 -16 -75 0 -17 -7 -60 -16 -96 -8 -36 -22 -114
-32 -175 -10 -60 -24 -121 -31 -133 -7 -13 -15 -48 -18 -78 -3 -30 -9 -57 -13
-59 -25 -16 -60 187 -60 355 -1 48 -8 84 -29 135 -23 56 -26 75 -19 97 6 16
15 31 21 35 16 10 37 13 37 5 0 -4 14 -8 30 -9 17 -1 46 -10 66 -19 59 -28 52
-5 -16 58 -85 79 -135 112 -159 105 -10 -2 -24 -1 -31 3 -7 4 -25 4 -40 -1
-36 -13 -144 -124 -135 -139 4 -6 13 -9 20 -6 45 17 63 -126 37 -294 -6 -41
-12 -122 -12 -180 -1 -108 -15 -188 -64 -354 -14 -48 -26 -92 -26 -97 0 -5
341 -9 800 -9 l800 0 0 273 0 272 -125 0 c-118 0 -125 -1 -126 -20 -1 -11 -5
-2 -10 20 -5 22 -26 87 -46 145 -35 100 -39 116 -42 183 0 16 -12 38 -26 51
-14 13 -25 29 -25 36 0 7 -7 10 -15 6 -22 -8 -119 31 -285 115 -107 54 -156
73 -187 74 -24 1 -50 8 -61 18 -10 9 -24 17 -30 17 -6 0 -21 19 -32 43 -14 28
-15 34 -4 20 13 -19 26 -23 68 -23 28 0 110 -4 181 -10 160 -12 433 -28 623
-36 l142 -7 0 27 c0 19 -6 27 -22 30 -13 3 -203 12 -423 21 -220 9 -444 19
-498 22 l-98 6 6 -39z"/>
<path d="M908 1220 c-7 -11 -18 -20 -25 -20 -7 0 -13 -5 -13 -10 0 -13 -97
-60 -123 -60 -10 0 -66 -21 -125 -46 -59 -25 -134 -52 -167 -59 -114 -26 -158
-41 -166 -55 -4 -8 -15 -49 -24 -90 -9 -41 -23 -88 -31 -104 -8 -16 -14 -40
-14 -53 0 -13 -7 -40 -15 -60 -8 -19 -15 -44 -15 -54 0 -11 -11 -41 -24 -68
-13 -27 -26 -61 -30 -75 -6 -25 -12 -27 -61 -30 -24 -1 -34 -54 -13 -71 7 -5
14 -17 16 -25 2 -8 10 -19 18 -23 22 -13 35 -45 28 -72 -7 -30 -29 -32 -69 -5
-43 28 -53 25 -22 -8 15 -15 27 -33 27 -40 0 -7 4 -12 9 -12 14 0 24 -109 11
-125 -9 -11 -16 -11 -46 1 -33 14 -34 13 -34 -7 0 -48 5 -48 487 -49 l451 0 7
50 c7 52 0 115 -15 140 -8 13 -10 12 -10 -2 0 -10 -4 -18 -9 -18 -4 0 -11 46
-15 103 -6 92 -4 110 19 186 29 97 28 91 16 91 -4 0 -15 -17 -23 -38 l-15 -37
-8 50 c-6 36 -1 103 19 245 15 108 26 227 25 264 -1 37 2 71 7 74 14 11 15 74
1 66 -9 -5 -9 -4 -1 5 12 13 7 61 -7 61 -5 0 -14 -9 -21 -20z m-792 -833 c10
4 12 0 8 -11 -8 -22 -28 -15 -31 10 -2 10 0 14 3 7 3 -7 12 -9 20 -6z"/>
<path d="M0 999 c0 -127 10 -147 29 -57 7 28 16 57 21 63 13 15 -16 101 -36
109 -12 4 -14 -15 -14 -115z"/>
<path d="M85 490 c3 -5 13 -10 21 -10 8 0 12 5 9 10 -3 6 -13 10 -21 10 -8 0
-12 -4 -9 -10z"/>
</g>
</svg>
